<?xml version="1.0" standalone="no"?><!DOCTYPE svg PUBLIC "-//W3C//DTD SVG 1.1//EN" "http://www.w3.org/Graphics/SVG/1.1/DTD/svg11.dtd"><svg class="icon" width="200px" height="200.00px" viewBox="0 0 1024 1024" version="1.1" xmlns="http://www.w3.org/2000/svg"><path fill="#cdcdcd" d="M837.58 371.84H643.974c-9.83 0-17.756 12.959-17.756 28.836 0 15.959 7.946 24.535 17.756 24.535h193.608c9.82 0 17.756-8.576 17.756-24.535 0.026-15.882-7.936-28.836-17.756-28.836z"  /><path fill="#cdcdcd" d="M617.513 398.444a26.762 26.762 0 1 0 53.524 0 26.762 26.762 0 1 0-53.524 0zM813.312 398.444a26.762 26.762 0 1 0 53.524 0 26.762 26.762 0 1 0-53.524 0zM768.983 578.652H643.968c-9.83 0-17.766 12.964-17.766 28.836 0 15.964 7.936 24.55 17.766 24.55h125.015c9.81 0 17.761-8.586 17.761-24.55 0.02-15.872-7.951-28.836-17.761-28.836z"  /><path fill="#cdcdcd" d="M617.503 605.266a26.772 26.772 0 1 0 53.545 0 26.772 26.772 0 1 0-53.545 0zM744.709 605.266a26.772 26.772 0 1 0 53.545 0 26.772 26.772 0 1 0-53.545 0z"  /><path fill="#cdcdcd" d="M995.292 240.45a147.671 147.671 0 0 0-0.527-9.415c-6.559-79.503-79.422-142.198-168.653-142.198H198.799c-89.236 0-162.17 62.71-168.73 142.229a141.184 141.184 0 0 0-0.506 9.108c-0.01 0.83-0.138 1.654-0.138 2.494v88.284h0.01v343.66h-0.01V762.9c0 19.728 4.239 38.508 11.678 55.834 24.617 57.313 85.801 97.997 157.63 97.997h627.379c93.558 0 169.298-68.874 169.298-153.83V242.656c0.005-0.742-0.108-1.47-0.118-2.206zM943.498 478.24l-0.04 252.554c0 34.872-5.776 74.64-29.656 98.59-26.946 26.998-74.46 36.163-117.575 36.163H228.736a294.44 294.44 0 0 1-16.681-0.466c-1.03-0.071-2.053-0.21-3.082-0.271a257.331 257.331 0 0 1-13.742-1.224c-1.224-0.138-2.417-0.379-3.625-0.542A242.335 242.335 0 0 1 178.688 861c-1.613-0.318-3.18-0.748-4.777-1.08a198.313 198.313 0 0 1-11.07-2.658c-2.4-0.68-4.68-1.52-7.024-2.283-2.637-0.86-5.3-1.685-7.829-2.653a137.718 137.718 0 0 1-10.163-4.551c-1.131-0.553-2.299-1.024-3.4-1.593-8.75-4.623-16.65-10.158-23.28-16.824-23.87-23.93-29.624-63.708-29.624-98.58V273.577c0.097-33.347 4.608-71.762 26.716-95.089 27.018-28.651 75.975-38.523 120.514-38.523h567.486c43.11 0 90.634 9.175 117.575 36.183 23.885 23.947 29.66 63.724 29.66 98.586v53.054h0.036v150.446h-0.01z"  /><path fill="#cdcdcd" d="M496.195 510.413c15.068-23.69 25.84-53.847 25.84-83.999 0-83.999-66.76-150.763-150.768-150.763-84 0-150.764 66.77-150.764 150.763 0 30.157 8.612 60.309 25.846 83.999-53.847 38.774-90.46 103.403-90.46 174.448 0 12.923 8.601 21.545 21.54 21.545 12.917 0 21.534-8.622 21.534-21.545 0-60.298 30.162-111.984 75.382-142.161 25.846 21.534 60.303 34.478 96.922 34.478 36.618 0 71.075-12.928 96.937-34.478 45.21 30.156 75.36 83.978 75.36 142.161 0 12.923 8.628 21.545 21.53 21.545 12.913 0 21.54-8.622 21.54-21.545 0-71.045-36.603-135.674-90.44-174.448z m-124.928 23.685c-60.309 0-107.69-47.38-107.69-107.689 0-60.303 47.376-107.689 107.69-107.689 60.318 0 107.689 47.386 107.689 107.689 0 60.308-47.37 107.689-107.69 107.689z"  /></svg>