<?xml version="1.0" standalone="no"?><!DOCTYPE svg PUBLIC "-//W3C//DTD SVG 1.1//EN" "http://www.w3.org/Graphics/SVG/1.1/DTD/svg11.dtd"><svg class="icon" width="200px" height="200.00px" viewBox="0 0 1024 1024" version="1.1" xmlns="http://www.w3.org/2000/svg"><path fill="#cdcdcd" d="M896 535.68V896c0 53.76-46.464 96-102.4 96H230.4c-55.936 0-102.4-42.24-102.4-96V535.68A146.752 146.752 0 0 1 32 397.12l1.28-8.768 63.488-222.72A96 96 0 0 1 189.056 96h643.52a96 96 0 0 1 92.096 68.8l65.984 223.232 1.344 9.024A146.56 146.56 0 0 1 896 535.68zM192 543.104V896c0 16.96 16.576 32 38.4 32h563.2c21.824 0 38.4-15.04 38.4-32V543.104a142.976 142.976 0 0 1-95.936-53.632 142.592 142.592 0 0 1-112 54.528 142.656 142.656 0 0 1-112-54.528 142.592 142.592 0 0 1-112 54.528 142.592 142.592 0 0 1-112-54.528c-23.232 29.248-57.344 49.28-96.064 53.632zM176 480C220.032 480 256 443.072 256 397.12h64C320 443.072 356.032 480 400 480c44.032 0 80-36.928 80-82.88h64c0 45.952 36.032 82.88 80.064 82.88 43.968 0 80-36.928 80-82.88h64c0 45.952 36.032 82.88 80 82.88 42.624 0 77.76-34.624 79.808-78.592l-64.64-218.496a32 32 0 0 0-30.656-22.912H189.056a32 32 0 0 0-30.72 23.232L96.064 401.28c2.048 44.032 37.184 78.72 79.872 78.72z" /></svg>