<?xml version="1.0" standalone="no"?><!DOCTYPE svg PUBLIC "-//W3C//DTD SVG 1.1//EN" "http://www.w3.org/Graphics/SVG/1.1/DTD/svg11.dtd"><svg class="icon" width="200px" height="200.00px" viewBox="0 0 1024 1024" version="1.1" xmlns="http://www.w3.org/2000/svg"><path fill="#cdcdcd" d="M337.23733333 414.21612715c0 93.62285682 70.73727033 170.60165063 160.19911112 183.08469874v210.13130126c0 16.64406301 14.56355555 31.20761856 31.20761856 31.20761856s31.20761856-14.56355555 31.20761969-31.20761856v-114.427937h52.01269874c16.64406301 0 31.20761856-14.56355555 31.20761856-31.20761856s-14.56355555-31.20761856-31.20761856-31.2076197h-52.01269874V595.2203173c83.2203173-16.64406301 147.71606301-91.54234937 147.71606301-181.00419015 0-101.94488889-83.2203173-185.16520619-185.16520619-185.16520619s-185.16520619 83.2203173-185.16520619 185.16520619z m185.16520619-122.74996793c68.65676174 0 122.74996793 54.09320619 122.74996793 122.74996793 0 68.65676174-54.09320619 122.74996793-122.74996793 122.74996792s-122.74996793-54.09320619-122.74996793-122.74996792c0-68.65676174 54.09320619-122.74996793 122.74996793-122.74996793z"  /><path fill="#cdcdcd" d="M913.53803207 145.83060366l-384.89396906-124.83047651c-6.24152349-2.08050745-12.48304811-2.08050745-18.72457046 0l-384.89396906 124.83047651c-12.48304811 4.16101603-20.80507904 16.64406301-20.80507904 29.12711111V661.79657159c2.08050745 16.64406301 24.96609507 162.27961856 403.61853952 339.12279382 4.16101603 2.08050745 8.32203207 2.08050745 12.4830481 2.08050744s8.32203207 0 12.48304697-2.08050744C909.37701603 824.07619015 934.34311111 678.44063459 936.42361856 661.79657159V174.95771477c-2.08050745-12.48304811-10.40253952-24.96609507-22.88558649-29.12711111z m-41.61015922 511.80495189c-2.08050745 10.40253952-37.44914318 128.99149255-353.68634936 280.8685716-318.31771477-151.87707904-351.60584078-270.46603207-353.68634938-280.8685716V197.84330126l353.68634938-116.50844444 353.68634936 116.50844444V657.63555555z"  /></svg>