<?xml version="1.0" standalone="no"?><!DOCTYPE svg PUBLIC "-//W3C//DTD SVG 1.1//EN" "http://www.w3.org/Graphics/SVG/1.1/DTD/svg11.dtd"><svg class="icon" width="200px" height="200.00px" viewBox="0 0 1024 1024" version="1.1" xmlns="http://www.w3.org/2000/svg"><path fill="#cdcdcd" d="M272.04863188 79.95136812A48 48 0 0 1 319.80547156 32h384.19452844a47.95136812 47.95136812 0 0 1 47.75683875 47.95136812v48.09726375a48 48 0 0 1-47.75683875 47.95136813h-384.19452844a47.90273531 47.90273531 0 0 1-47.75683969-47.95136813z m48 48.04863188h383.90273625V80H320.04863187z m-118.17629157-48v48H128.19452844v815.70820687h767.85410344V128.14589656h-71.343465V80.14589656h71.19756843a48.04863187 48.04863187 0 0 1 48.14589657 48.14589656v815.56231032a48 48 0 0 1-48 48.14589656H128.04863187a48 48 0 0 1-47.95136718-48.14589656V128.14589656a48.09726469 48.09726469 0 0 1 48.09726375-48.14589656z m0 0"  /><path fill="#cdcdcd" d="M701.56838937 454.56534969a26.69908781 26.69908781 0 0 0-26.99088187 26.35866281 26.11550156 26.11550156 0 0 0 2.1398175 10.3586625l-87.92705156 35.64741656-61.86018188-103.73252344a26.40729469 26.40729469 0 0 0 11.62309969-21.68996906 27.03951375 27.03951375 0 0 0-54.03039469 0 26.21276625 26.21276625 0 0 0 11.47720313 21.5440725l-68.62006032 103.82978719-80.24316093-35.06382938a26.06686969 26.06686969 0 0 0 2.38297875-10.79635312 27.08814562 27.08814562 0 1 0-27.67173282 26.26139812l41.82370782 176.09726438a15.02735531 15.02735531 0 0 0 14.58966562 11.47720406h266.16413438a15.07598813 15.07598813 0 0 0 14.58966562-11.47720406l41.87234063-176.09726438h0.43768968a26.35866281 26.35866281 0 1 0 0-52.71732468z m-69.00911906 210.77203594H390.41945281l-32.3890575-136.17021282 68.76595688 30.10334344a15.36778125 15.36778125 0 0 0 18.86930156-5.49544031l65.21580563-98.91793313 58.3586625 97.99392094a15.22188469 15.22188469 0 0 0 18.82066875 6.22492406l77.22796312-31.27051687z m9.09422531 51.1124625H381.27659562a14.75987813 14.75987813 0 1 0 1e-8 29.51975718h260.42553187a14.73556219 14.73556219 0 1 0 0-29.47112531z m0 0"  /></svg>