<?xml version="1.0" standalone="no"?><!DOCTYPE svg PUBLIC "-//W3C//DTD SVG 1.1//EN" "http://www.w3.org/Graphics/SVG/1.1/DTD/svg11.dtd"><svg class="icon" width="200px" height="200.00px" viewBox="0 0 1024 1024" version="1.1" xmlns="http://www.w3.org/2000/svg"><path fill="#cdcdcd" d="M788.17514 990.88846438H131.8692575a77.48593688 77.48593688 0 0 1-77.48593594-77.48593688V111.810515A80.19794437 80.19794437 0 0 1 134.19383563 32h680.71395281a80.19794437 80.19794437 0 0 1 79.81051406 79.810515v170.46906a48.42871031 48.42871031 0 0 1-48.42871031 48.81613969c-26.73264844 0-24.40807031-26.34521812-24.40807032-54.24015563V134.66886594a38.74296844 38.74296844 0 0 0-38.7429675-38.74296844H157.43961688a38.74296844 38.74296844 0 0 0-38.74296844 38.74296844v753.93816187a38.74296844 38.74296844 0 0 0 38.74296843 38.74296844h628.79837438a35.64353062 35.64353062 0 0 0 35.64353062-35.64353063v-128.23922531c0-27.8949375-2.32457812-60.82645969 24.40807032-60.82645969a48.42871031 48.42871031 0 0 1 48.42871031 48.81613969V884.34530188a98.79456938 98.79456938 0 0 1-106.5431625 107.31802218zM889.2942875 396.18390125l-185.96624813 190.61540437a38.74296844 38.74296844 0 0 0-10.46060156 20.53377282l-12.01032 55.78987406a13.56003844 13.56003844 0 0 0 17.43433594 15.49718719l56.56473375-15.10975688a38.74296844 38.74296844 0 0 0 16.27204594-11.62289062l186.3536775-190.61540438a38.74296844 38.74296844 0 0 0 0-54.24015468L945.47159094 396.18390125a38.74296844 38.74296844 0 0 0-56.17730344 0zM280.64225562 803.37249781a24.02064 24.02064 0 0 1-12.01031999-3.09943781 24.40807031 24.40807031 0 0 1-9.2983125-32.15666344C364.32706719 582.53757875 403.07003563 588.73645344 416.63007406 591.06103156s27.12007781 8.52345281 32.93152313 38.74296844a492.81055594 492.81055594 0 0 1 7.74859406 69.73734281v13.94746875l17.43433594-19.37148375c36.03096094-38.74296844 58.11445219-63.9258975 85.62195937-57.72702281s30.99437437 31.38180469 33.3189525 38.74296844a99.18199875 99.18199875 0 0 1 2.71200844 38.7429675l12.39774938-5.424015a24.40807031 24.40807031 0 0 1 20.14634343 44.16698344c-38.74296844 17.82176531-59.27674125 26.34521812-77.48593687 12.78517968a38.74296844 38.74296844 0 0 1-7.74859313-41.45497593 68.96248313 68.96248313 0 0 0 0-35.64353063 486.99911063 486.99911063 0 0 0-36.03096094 38.7429675l-19.37148375 21.30863344c-10.46060156 11.23546125-31.76923406 34.48124156-55.78987406 25.95778781s-25.18292906-35.25610125-27.50750812-71.67449062A500.17171969 500.17171969 0 0 0 403.07003563 645.30118719a705.89688187 705.89688187 0 0 0-101.89400626 145.67356125 24.02064 24.02064 0 0 1-21.3086325 12.39774937zM215.94149844 211.7673725h485.06196281V260.58351312H215.94149844z m0 97.24485094h485.06196281v48.81613968H215.94149844z m0 97.24485h387.4296825v48.42871031h-387.4296825z m0 0" /></svg>