<?xml version="1.0" standalone="no"?><!DOCTYPE svg PUBLIC "-//W3C//DTD SVG 1.1//EN" "http://www.w3.org/Graphics/SVG/1.1/DTD/svg11.dtd"><svg class="icon" width="200px" height="200.00px" viewBox="0 0 1024 1024" version="1.1" xmlns="http://www.w3.org/2000/svg"><path fill="#cdcdcd" d="M79.21843093 885.48438613c-12.05700267 0-21.83053227-9.7735296-21.83053226-21.83053226 0-18.3289152 9.60106773-33.97922347 28.53796373-46.51540694 13.143072-8.70055893 29.47012693-15.1853184 45.2590592-21.45722986 17.29960533-6.87116053 46.25344-18.3714848 46.25344-27.39513494 0-9.0247424-28.95383467-20.52615787-46.25344-27.3973184-15.79002347-6.27191147-32.11707947-12.7577632-45.2590592-21.45832213-18.93580373-12.53618347-28.53796373-28.18649173-28.53796373-46.51649813s9.60106773-33.98031467 28.53796373-46.51649814c13.143072-8.70055893 29.47012693-15.1864096 45.2590592-21.45722986 17.29960533-6.87116053 46.25344-18.372576 46.25344-27.39622614 0-9.0247424-28.95383467-20.52615787-46.25344-27.3973184-15.79002347-6.27191147-32.11707947-12.7577632-45.2590592-21.45832213-18.93580373-12.53618347-28.53796373-28.18649173-28.53796373-46.51649813s9.60106773-33.98031467 28.53796373-46.51649814c13.143072-8.70055893 29.47012693-15.1864096 45.2590592-21.45722986 17.29960533-6.87116053 46.25344-18.372576 46.25344-27.39622614 0-9.0247424-28.95383467-20.52615787-46.25344-27.3973184-15.79002347-6.27191147-32.11707947-12.7577632-45.26015147-21.45832213-18.93580373-12.53618347-28.53796373-28.18649173-28.53796373-46.51649813s9.60106773-33.98031467 28.53687147-46.51758934c13.143072-8.70165013 29.47012693-15.1875008 45.2590592-21.45941333 17.29960533-6.87225173 46.2545312-18.3736672 46.2545312-27.400592s-28.95492693-20.52834133-46.2545312-27.400592c-15.78893227-6.27300373-32.11707947-12.7577632-45.2590592-21.45941333-18.93580373-12.53727467-28.53687147-28.18758293-28.53687147-46.51758934 0-12.05700267 9.7735296-21.83053227 21.83053227-21.83053226s21.83053227 9.7735296 21.83053226 21.83053226c0 9.0258336 28.95383467 20.52834133 46.25344 27.3995008 15.79002347 6.27300373 32.11707947 12.7577632 45.2590592 21.45941334 18.93580373 12.53618347 28.53796373 28.18758293 28.53796374 46.51758933s-9.60106773 33.98140693-28.53796374 46.51758933c-13.143072 8.70165013-29.47012693 15.1875008-45.2590592 21.45941334-17.29960533 6.87116053-46.25344 18.3736672-46.25344 27.3995008 0 9.0258336 28.95383467 20.52615787 46.25344 27.3984096 15.79002347 6.27191147 32.11707947 12.7577632 45.2590592 21.45832213 18.93580373 12.53618347 28.53796373 28.18649173 28.53796374 46.51649813s-9.60106773 33.98031467-28.53796374 46.51649814c-13.143072 8.70055893-29.47012693 15.1853184-45.2590592 21.45722986-17.29960533 6.87116053-46.25344 18.372576-46.25344 27.39622614s28.95383467 20.52506667 46.25344 27.3973184c15.79002347 6.27191147 32.11707947 12.7577632 45.2590592 21.45832213 18.93689493 12.53618347 28.53796373 28.18649173 28.53796374 46.51649813s-9.60106773 33.98031467-28.53796374 46.51649814c-13.143072 8.70055893-29.47012693 15.1853184-45.2590592 21.45722986-17.29960533 6.87116053-46.25344 18.372576-46.25344 27.39622614s28.95383467 20.52506667 46.25344 27.3973184c15.79002347 6.27191147 32.11707947 12.7577632 45.2590592 21.45832213 18.93689493 12.53618347 28.53796373 28.18649173 28.53796374 46.51649813 0 18.3289152-9.60106773 33.97922347-28.53796374 46.51540694-13.143072 8.70055893-29.47012693 15.1853184-45.2590592 21.45722986-17.29960533 6.87116053-46.25344 18.3714848-46.25344 27.39513494C101.0489632 875.71085653 91.2754336 885.48438613 79.21843093 885.48438613z"  /><path fill="#cdcdcd" d="M944.78156907 885.48438613c-12.05700267 0-21.83053227-9.7735296-21.83053227-21.83053226 0-9.0269248-28.95492693-20.52834133-46.2545312-27.400592-15.78893227-6.27300373-32.1159872-12.7577632-45.2590592-21.45941334-18.93580373-12.53618347-28.53796373-28.18758293-28.53796373-46.51758933 0-18.3300064 9.60106773-33.98031467 28.53687146-46.51758933 13.143072-8.70055893 29.47012693-15.1864096 45.2590592-21.45941334 17.29960533-6.87116053 46.2545312-18.3736672 46.2545312-27.400592 0-9.0247424-28.95383467-20.52615787-46.25344-27.3973184-15.79002347-6.27191147-32.11707947-12.7577632-45.26015146-21.45832213-18.93580373-12.53618347-28.53796373-28.18649173-28.53796374-46.51649813s9.60106773-33.98031467 28.53796374-46.51649814c13.143072-8.70055893 29.47012693-15.1853184 45.2590592-21.45722986 17.29960533-6.87116053 46.25344-18.372576 46.25344-27.39622614s-28.95383467-20.52506667-46.25344-27.3973184c-15.78893227-6.27191147-32.11707947-12.7577632-45.2590592-21.45832213-18.93580373-12.53618347-28.53796373-28.18649173-28.53796374-46.51649813s9.60106773-33.98031467 28.53796374-46.51649814c13.143072-8.70055893 29.47012693-15.1853184 45.2590592-21.45722986 17.29960533-6.87116053 46.25344-18.372576 46.25344-27.39622614 0-9.0247424-28.95383467-20.52615787-46.25344-27.3973184-15.79002347-6.27191147-32.11707947-12.7577632-45.2590592-21.45832213-18.93580373-12.53618347-28.53796373-28.18649173-28.53796374-46.51649813 0-18.3289152 9.60106773-33.97922347 28.53796374-46.51540694 13.143072-8.70055893 29.47012693-15.1853184 45.2590592-21.45722986 17.29960533-6.87116053 46.25344-18.3714848 46.25344-27.39513494 0-12.05700267 9.7735296-21.83053227 21.83053226-21.83053226s21.83053227 9.7735296 21.83053227 21.83053226c0 18.3289152-9.60106773 33.97922347-28.53796373 46.51540694-13.143072 8.70055893-29.47012693 15.1853184-45.2590592 21.45722986-17.29960533 6.87116053-46.25344 18.372576-46.25344 27.39513494 0 9.0247424 28.95383467 20.52506667 46.25344 27.3973184 15.79002347 6.27191147 32.11707947 12.7577632 45.2590592 21.45832213 18.93689493 12.53618347 28.53796373 28.18649173 28.53796373 46.51649813s-9.60106773 33.98031467-28.53796373 46.51649814c-13.143072 8.70055893-29.47012693 15.1864096-45.2590592 21.45722986-17.29960533 6.87116053-46.25344 18.372576-46.25344 27.39622614s28.95383467 20.52506667 46.25344 27.3973184c15.78893227 6.27191147 32.11707947 12.7577632 45.2590592 21.45832213 18.93580373 12.53618347 28.53796373 28.18649173 28.53796373 46.51649813s-9.60106773 33.98031467-28.53796373 46.51649814c-13.143072 8.70055893-29.47012693 15.1853184-45.2590592 21.45722986-17.29960533 6.87116053-46.25344 18.372576-46.25344 27.39622614 0 9.0258336 28.95383467 20.52615787 46.25344 27.3984096 15.79002347 6.27191147 32.11707947 12.7577632 45.2590592 21.45832213 18.93580373 12.53618347 28.53796373 28.18649173 28.53796373 46.51649813 0 18.3300064-9.60106773 33.98140693-28.53796373 46.51758934-13.143072 8.70165013-29.47012693 15.1875008-45.2590592 21.45941333-17.29960533 6.87116053-46.25344 18.3736672-46.25344 27.3995008 0 9.0269248 28.95492693 20.52834133 46.2545312 27.400592 15.78893227 6.27300373 32.1159872 12.7577632 45.2590592 21.45941333 18.93580373 12.53618347 28.53796373 28.18758293 28.53796373 46.51758934C966.61210133 875.71085653 956.83857173 885.48438613 944.78156907 885.48438613z"  /><path fill="#cdcdcd" d="M709.17445867 144.33781653l0 698.21355307L314.82554133 842.5513696 314.82554133 144.33781653 709.17445867 144.33781653M728.08297387 100.676752L295.91702613 100.676752c-13.67027947 0-24.75254933 11.08226987-24.75254933 24.75254933l0 736.02949227c0 13.67027947 11.08226987 24.75254933 24.75254933 24.75254933l432.1659488 0c13.67027947 0 24.75254933-11.08226987 24.75254934-24.75254933L752.8355232 125.42930133C752.8355232 111.75793067 741.75325333 100.676752 728.08297387 100.676752L728.08297387 100.676752z"  /></svg>