<?xml version="1.0" standalone="no"?><!DOCTYPE svg PUBLIC "-//W3C//DTD SVG 1.1//EN" "http://www.w3.org/Graphics/SVG/1.1/DTD/svg11.dtd"><svg class="icon" width="200px" height="200.00px" viewBox="0 0 1024 1024" version="1.1" xmlns="http://www.w3.org/2000/svg"><path fill="#cdcdcd" d="M492.11589215 528.43200579v-0.27616816c5.93761554 0.41425225 12.01331517 0.69042042 17.9509307 0.69042041 33.41634791 0 65.72802318-6.48995186 96.38268945-19.46985561 29.41190953-12.42756741 55.92405333-30.24041403 78.56984283-53.0242876 22.64578949-22.64578949 40.59672019-49.1579333 53.0242876-78.56984283 12.97990373-30.5165822 19.46985561-62.96634153 19.46985561-96.38268945s-6.48995186-65.72802318-19.46985561-96.38268945c-12.42756741-29.41190953-30.24041403-55.92405333-53.0242876-78.56984283-22.64578949-22.64578949-49.1579333-40.59672019-78.56984283-53.0242876-30.5165822-12.97990373-62.96634153-19.46985561-96.38268945-19.46985561s-65.72802318 6.48995186-96.38268945 19.46985561c-29.41190953 12.42756741-55.92405333 30.24041403-78.56984283 53.0242876-22.64578949 22.64578949-40.59672019 49.1579333-53.0242876 78.56984283-12.97990373 30.5165822-19.46985561 62.96634153-19.46985561 96.38268945s6.48995186 65.72802318 19.46985561 96.38268945c12.42756741 29.41190953 30.24041403 55.92405333 53.0242876 78.56984283 12.84181965 12.84181965 26.92639605 24.1647144 42.1156451 33.83060017-5.24719513 1.93317715-10.63247434 4.14252247-15.87966946 6.35186778-50.26260596 21.26494868-95.41610087 51.64344678-134.217728 90.44507391-38.80162713 38.80162713-69.18012524 83.95512204-90.44507391 134.217728-22.09345317 52.05769902-33.14017975 107.42941603-33.14017977 164.32005794 0 16.57008987 0.27616816 33.00209567 1.10467266 49.29601738v25.13130299c0 18.36518295 14.91308089 33.27826384 33.27826384 33.27826383h464.3767688l-38.24929081-63.93293009-394.36813905-0.1380841c-1.79509307-14.36074457-2.62359757-28.85957319-2.62359757-43.63457001 0.13808409-186.68967926 142.7789411-340.10109472 325.04992975-357.08543684zM326.2769093 281.39958255c0-101.62988459 82.29811305-183.92799763 183.92799763-183.92799763S694.13290457 179.76969797 694.13290457 281.39958255s-82.29811305 183.92799763-183.92799764 183.92799763S326.2769093 383.02946713 326.2769093 281.39958255z"  /><path fill="#cdcdcd" d="M778.77844702 711.25533076v-55.09554884h115.30020871v-63.51867786h-115.30020871v-53.57662392h115.30020871v-63.51867787H715.25976915V715.39785324c-56.61447375 17.39859437-97.76353027 70.1467138-97.76353027 132.42263492 0 76.36049751 62.13783703 138.49833455 138.49833455 138.49833456S894.49290799 924.31906976 894.49290799 847.95857225c0-68.62778891-50.12452187-125.79459897-115.71446097-136.70324149z m-22.78387359 211.5448141c-41.42522469 0-74.97965669-33.554432-74.97965668-74.9796567s33.554432-74.97965669 74.97965668-74.97965669c41.42522469 0 74.97965669 33.554432 74.9796567 74.97965669s-33.554432 74.97965669-74.9796567 74.9796567z"  /></svg>