<?xml version="1.0" standalone="no"?><!DOCTYPE svg PUBLIC "-//W3C//DTD SVG 1.1//EN" "http://www.w3.org/Graphics/SVG/1.1/DTD/svg11.dtd"><svg class="icon" width="200px" height="200.00px" viewBox="0 0 1024 1024" version="1.1" xmlns="http://www.w3.org/2000/svg"><path fill="#cdcdcd" d="M828.18666665 32H228.66666665C179.04666665 32 138.66666665 72.38 138.66666665 122v780.06c0 49.62 40.38 90 90 90h599.52c49.62 0 90-40.38 90-90V122c0-49.62-40.38-90-90-90z m30 870.12c0 16.5-13.5 30-30 30H228.66666665a30 30 0 0 1-30-30V122c0-16.5 13.5-30 30-30h599.52a30 30 0 0 1 30 30v780.12z"  /><path fill="#cdcdcd" d="M678.66666665 833l57.18-170.28-114.3-0.12zM678.66666665 158a57.48 57.48 0 0 0-57.48 57.48v445.02h115.02V215.48A57.6 57.6 0 0 0 678.66666665 158zM287.40666665 240.74h223.74v60H287.40666665zM284.94666665 438.74h229.74v60H284.94666665zM280.38666665 632h254.04v60H280.38666665z"  /></svg>