<?xml version="1.0" standalone="no"?><!DOCTYPE svg PUBLIC "-//W3C//DTD SVG 1.1//EN" "http://www.w3.org/Graphics/SVG/1.1/DTD/svg11.dtd"><svg class="icon" width="200px" height="200.00px" viewBox="0 0 1024 1024" version="1.1" xmlns="http://www.w3.org/2000/svg"><path fill="#cdcdcd" d="M939.008 205.312c-15.872 0-28.672 12.8-28.672 28.672V921.6l-388.608-164.352c-7.168-3.072-15.36-3.072-22.528 0l-380.416 164.864V142.848c0-29.184 23.552-52.736 52.736-52.736h662.528c15.872 0 28.672-12.8 28.672-28.672s-12.8-28.672-28.672-28.672h-662.528c-60.928 0-110.592 49.664-110.592 110.592v823.808c0 9.728 5.12 18.432 12.8 24.064 4.608 3.072 10.24 4.608 15.872 4.608 4.096 0 7.68-0.512 11.264-2.048l409.088-177.664 417.28 176.64c8.704 3.584 18.944 3.072 27.136-2.56 8.192-5.632 12.8-14.336 12.8-24.064v-732.16c0.512-15.872-12.288-28.672-28.16-28.672z"  /><path fill="#cdcdcd" d="M761.344 385.024c-4.096-11.776-14.848-19.968-27.648-19.968h-146.432l-45.056-139.776c-3.584-11.776-14.848-19.968-27.136-19.968s-23.552 8.192-27.648 19.968l-45.056 140.288h-146.432c-12.288 0-23.552 8.192-27.648 19.968-3.584 11.776 0.512 25.088 10.24 32.256l118.784 86.528-45.056 139.776c-3.584 11.776 0.512 25.088 10.24 32.256 10.24 7.168 23.552 7.168 33.792 0l118.784-86.528 118.272 86.528c5.12 3.584 11.264 5.632 16.896 5.632 6.144 0 11.776-1.536 16.896-5.632 10.24-7.168 14.336-20.48 10.24-32.256l-45.568-139.776 118.784-86.528c10.24-7.68 14.336-20.992 10.752-32.768z m-179.712 84.48c-10.24 7.68-14.336 20.48-10.24 32.256l24.576 75.264-64-46.592c-5.12-3.584-10.752-5.632-16.896-5.632-6.144 0-11.776 2.048-16.896 5.632l-64 46.592 24.576-75.264c4.096-11.776-0.512-25.088-10.24-32.256l-64-46.592h78.848c12.288 0 23.552-8.192 27.136-19.968l24.576-75.264 24.576 75.264c3.584 11.776 14.848 19.968 27.648 19.968h78.848l-64.512 46.592z"  /></svg>