<?xml version="1.0" standalone="no"?><!DOCTYPE svg PUBLIC "-//W3C//DTD SVG 1.1//EN" "http://www.w3.org/Graphics/SVG/1.1/DTD/svg11.dtd"><svg class="icon" width="200px" height="200.00px" viewBox="0 0 1024 1024" version="1.1" xmlns="http://www.w3.org/2000/svg"><path fill="#cdcdcd" d="M764.34682906 990.21081313c-58.64311969 0-114.31225594-22.22525156-156.74140968-62.57741251l-2.06643844-1.96762593-0.03933375 0.0326175-2.17100813-2.09234063c-42.93760875-42.89155969-66.61051781-99.98724844-66.61051781-160.71695437V562.96736375c0-15.11263406 12.31037344-27.40286062 27.43643813-27.40286062 15.15868219 0 27.49591781 12.29118656 27.49591781 27.40286062v199.9226925c0 46.09674656 17.95518656 89.4142575 50.55004687 121.969785l1.74985313 1.78247156c32.44328344 31.42349531 75.18326531 48.70138031 120.39741094 48.70138031 46.1946 0 89.59941188-17.90242219 122.21345906-50.41286062 32.5555275-32.58142969 50.48481094-75.92676187 50.48481187-122.04269438 0-45.47029125-17.51484469-88.36856625-49.31920218-120.80513437l-1.17136594-1.11284531c-32.60733187-32.56799906-76.03228969-50.53661625-122.20674375-50.53661625h-68.24237156c-15.15868219 0-27.4892025-12.322845-27.4892025-27.46905657 0-15.11263406 12.33052031-27.40957594 27.4892025-27.40957593h68.24237156c60.82084313 0 117.98272781 23.6393325 160.96638469 66.57022593l1.52728499 1.658715c42.02910469 42.73422656 65.13695719 99.21113531 65.13695719 159.1042875 0 60.64912031-23.67291 117.69300375-66.66232312 160.63157157-43.07287687 43.00380375-100.24243594 66.69110344-160.97022188 66.69110343z m-503.63453625-0.00671532c-59.97181875 0-116.59742719-23.14047094-159.44293781-65.16285937l-1.32582094-1.22413032c-43.07863312-43.00284375-66.85707094-100.19254969-66.85707093-160.93280812 0-60.73546125 23.67291-117.82539469 66.65560781-160.75628719s100.14937875-66.570225 160.96638469-66.570225H460.90839969c15.12606469 0 27.43643812 12.29118656 27.44027625 27.40286063V762.88334094c0 60.66351-23.67291 117.70739437-66.659445 160.63157156-43.06616156 43.00284375-100.23476063 66.68918437-160.97693813 66.68918531z m-0.00383718-399.7676775c-46.17445406 0-89.54952563 17.92928437-122.14438594 50.49056719-32.59198219 32.52290906-50.54333156 75.84233906-50.54333156 121.96306875 0 46.10825906 17.95134937 89.42864719 50.54620968 121.96306969l1.23372375 1.30951218c32.45671406 31.73912062 75.3645825 49.17529875 120.906825 49.17529875 46.20419344 0 89.60804531-17.90242219 122.21729625-50.40614437 32.5555275-32.58142969 50.48481094-75.92004656 50.48481188-122.04269531v-172.45267688H260.70845562zM564.15360031 487.26317187c-15.12606469 0-27.43260094-12.29118656-27.43260093-27.40286156V259.93761875c0-60.74505469 23.67674719-117.83498812 66.659445-160.75245C646.36410125 56.25715344 703.525985 32.61686187 764.34682906 32.61686187c60.82755937 0 117.98944313 23.64029156 160.96638469 66.56830688l2.72359312 2.71399969 1.45341469 1.69708968c40.29268125 42.41764125 62.48531531 97.93903687 62.48531532 156.34136063 0 60.65583562-23.67291 117.70259719-66.66232313 160.63348969-43.06328344 43.00668187-100.2318825 66.6930225-160.96638469 66.6930225H564.15360031v-0.00095907z m200.19322875-399.78014906c-46.16869781 0-89.5466475 17.92928437-122.14822406 50.48481094-32.59486031 32.55169031-50.55004688 75.86824125-50.55004687 121.969785v172.45363594h172.69827093c46.1946 0 89.59269656-17.90338125 122.21345906-50.41477875 32.5555275-32.58142969 50.48481094-75.92004656 50.48481094-122.03885719 0-45.37915312-17.455365-88.21794844-49.1474775-120.62477719l-1.45341469-1.39489406c-32.55169031-32.50564125-75.93059906-50.43492469-122.09737781-50.43492469z m-503.63837343 399.78014906c-58.69876219 0-114.39380062-22.25211281-156.8248725-62.66471343l-2.22760969-2.11920375-0.03645563 0.03261844-1.92061781-1.85442282C56.75745406 377.76205344 33.08550406 320.67116094 33.08550406 259.93665875c0-60.73162406 23.67291-117.82155656 66.65560781-160.75245 42.98077875-42.92801437 100.14650063-66.56830687 160.96638469-66.56830594S378.69789875 56.25619438 421.68059656 99.18324969l1.56278063 1.69996781c42.00991688 42.69681188 65.10050156 99.15645188 65.10050156 159.05248219v199.9226925c0 15.11263406-12.30653625 27.40286062-27.43643812 27.40286062H260.70845562v0.00191906z m0-399.78014906c-46.16486062 0-89.54281031 17.92928437-122.14438594 50.48097375-32.59198219 32.54497406-50.54333156 75.86152594-50.54333156 121.97362219 0 46.10154281 17.94847125 89.42193187 50.54333156 121.97554031l1.74985312 1.7805525c32.44328344 31.42349531 75.18038812 48.69850219 120.39357375 48.69850219h172.70018907V259.93857781c0-45.464535-17.51484469-88.36856625-49.31920125-120.818565l-1.1847975-1.11188625c-32.60253563-32.55360844-76.03037156-50.52510375-122.19523125-50.52510375z"  /></svg>