<?xml version="1.0" standalone="no"?><!DOCTYPE svg PUBLIC "-//W3C//DTD SVG 1.1//EN" "http://www.w3.org/Graphics/SVG/1.1/DTD/svg11.dtd"><svg class="icon" width="200px" height="200.00px" viewBox="0 0 1024 1024" version="1.1" xmlns="http://www.w3.org/2000/svg"><path fill="#cdcdcd" d="M826.1921152 555.1404064c-46.79265387-48.9364128-95.1789376-99.53958613-95.1789376-213.5113376 0-86.3670432-50.50711893-164.22563627-129.05555733-199.56926827 0.6963936-4.58550293 1.0478656-9.20156907 1.0478656-13.7750656 0-50.06505067-40.72922347-90.7953664-90.7942752-90.7953664-50.06505067 0-90.7953664 40.73031573-90.7953664 90.7953664 0 4.57131307 0.3525632 9.18847147 1.0489568 13.77615787-78.5484384 35.343632-129.05555733 113.20222507-129.05555734 199.568176 0 113.97175147-48.38628267 164.5738336-95.1800288 213.5113376-38.82450987 40.60369813-75.49653013 78.9555776-75.49653013 149.1734848 0 33.6539488 25.99252373 65.44247787 75.16797973 91.9283712 45.7491552 24.6390304 108.2488768 43.11202667 181.01004054 53.5240992-0.0949632 1.25743893-0.16263787 2.54871467-0.16263787 3.88910933 0 73.59181547 59.87132587 133.46205013 133.46314133 133.46205014 73.59290773 0 133.4642336-59.87132587 133.4642336-133.46205014 0-1.33930347-0.06767467-2.6305792-0.16263786-3.88910933 72.76007253-10.41207253 135.25979413-28.8850688 181.00894933-53.5240992 49.17436587-26.48589333 75.16688853-58.2744224 75.16688853-91.9283712C901.68864427 634.095984 865.01662507 595.74410453 826.1921152 555.1404064zM512.2101184 91.0735008c20.51960853 0 37.21341653 16.6927168 37.21341653 37.21014187 0 20.51851733-16.693808 37.21123413-37.21341653 37.21123413-20.51742613 0-37.21014187-16.6927168-37.21014187-37.21123413C474.99997653 107.7662176 491.69269333 91.0735008 512.2101184 91.0735008zM236.95221227 592.1638976c49.02591787-51.24280853 110.04007253-115.0163424 110.04007253-250.53592 0-66.03408533 38.86053013-125.04310507 99.3387456-151.39474133 17.24175467 18.38130773 41.03048533 28.84577387 65.8779968 28.84577386 24.8540608 0 48.63515093-10.46337387 65.85834987-28.84468266 60.49131307 26.35600107 99.3594848 85.36502187 99.3594848 151.39364906 0 135.52285227 61.01415467 199.29420373 110.0346144 250.52827947l0.84156693 0.88413653c7.38745173 7.74547307 14.42998187 15.12965013 20.82960213 22.33700054-20.4683072 16.99725227-58.2842464 32.26661867-107.4662528 43.29649493-54.98128747 12.3298848-120.49471467 18.84738987-189.45736533 18.84738987-68.91789867 0-134.4182272-6.5011328-189.42352853-18.8004544-49.2267584-11.00695467-87.09727467-26.24794027-107.6179744-43.2157216C221.72759893 608.1187424 228.97642773 600.49552 236.95221227 592.1638976zM512.2101184 933.53447893c-43.3336064 0-78.71871573-34.68653227-79.85172053-77.75162346 26.6834592 2.21034133 53.51864107 3.33024747 79.85172053 3.33024746 26.33307947 0 53.16717013-1.11881493 79.85062933-3.33024746C590.927744 898.8468544 555.5426336 933.53447893 512.2101184 933.53447893zM512.2101184 805.5278784c-221.61264747 0-335.89330133-70.944864-335.89330133-101.21507947 0-18.02874453 3.51580693-33.82095253 11.00695466-49.18964693 29.83142187 21.97898027 73.9203648 40.54584747 128.0840992 53.88648533 58.6913856 14.45508693 126.74370453 22.0957728 196.80115627 22.0957728 70.0803744 0 138.14033387-7.65050987 196.8186208-22.12306133 54.14299413-13.35373653 98.20792427-31.94134293 128.0120576-53.9421536 7.527168 15.4003488 11.06153067 31.22093547 11.06153067 49.27260267C848.10341973 734.58301547 733.82276693 805.5278784 512.2101184 805.5278784z" /></svg>