<?xml version="1.0" standalone="no"?><!DOCTYPE svg PUBLIC "-//W3C//DTD SVG 1.1//EN" "http://www.w3.org/Graphics/SVG/1.1/DTD/svg11.dtd"><svg class="icon" width="200px" height="200.00px" viewBox="0 0 1024 1024" version="1.1" xmlns="http://www.w3.org/2000/svg"><path fill="#cdcdcd" d="M809.74380206 66.67883498H216.84527408c-64.72691317 0-116.50844445 51.78153127-116.50844445 116.50844443v701.63974281c0 64.72691317 51.78153127 116.50844445 116.50844445 116.50844445h359.88163909c194.18074075 0 349.52533333-155.34459259 349.52533334-349.52533334V183.18727941c0-64.72691317-51.78153127-116.50844445-116.50844445-116.50844443zM848.57995022 651.81013333c0 150.1664391-121.68659794 271.85303703-271.85303705 271.85303704H216.84527408c-20.71261275 0-38.83614815-18.12353539-38.83614816-38.83614815V183.18727941c0-20.71261275 18.12353539-38.83614815 38.83614816-38.83614814h592.89852798c20.71261275 0 38.83614815 18.12353539 38.83614816 38.83614814v468.62285392z"  /><path fill="#cdcdcd" d="M721.7152 315.23018311H330.76464238c-20.71261275 0-38.83614815 18.12353539-38.83614815 38.83614816s18.12353539 38.83614815 38.83614815 38.83614814h390.95055762c20.71261275 0 38.83614815-18.12353539 38.83614815-38.83614814s-15.53445925-38.83614815-38.83614815-38.83614816zM553.42522429 584.49414281H330.76464238c-20.71261275 0-38.83614815 18.12353539-38.83614815 38.83614814s18.12353539 38.83614815 38.83614815 38.83614815h222.66058191c20.71261275 0 38.83614815-18.12353539 38.83614815-38.83614815s-18.12353539-38.83614815-38.83614815-38.83614814z"  /></svg>