<?xml version="1.0" standalone="no"?><!DOCTYPE svg PUBLIC "-//W3C//DTD SVG 1.1//EN" "http://www.w3.org/Graphics/SVG/1.1/DTD/svg11.dtd"><svg class="icon" width="200px" height="200.00px" viewBox="0 0 1024 1024" version="1.1" xmlns="http://www.w3.org/2000/svg"><path fill="#cdcdcd" d="M814.89995738 979.49801998H208.59618899c-54.0802801 0-104.80153786-41.14804022-115.38246127-93.71675945L37.45393507 610.84517461v-0.33590196c-5.03853489-25.69653084 2.18336479-53.57642646 19.48233703-74.57032437 17.13102055-20.82594623 41.65189386-32.41457827 68.69203392-32.41457826h772.07158406c28.38374926 0 54.24823177 11.75658234 70.87539871 32.07867492 16.7951186 20.49004428 22.84136075 47.19428237 17.29897222 75.07417938l-55.75979265 275.10403621c-10.41297312 52.5687206-60.96627921 93.71675945-115.21451098 93.71675945zM99.0920182 597.40908112L154.85181084 872.34516564c4.19877932 20.99389792 32.07867632 44.33911228 53.74437815 44.33911228h606.30376839c22.16955545 0 49.54559884-23.00931242 53.74437814-44.1711606l55.75979266-275.1040362c1.00770725-5.37443823-3.69492567-12.93224125-8.22960834-18.64258144-3.69492567-4.53468126-10.24502146-12.09248566-18.30667809-12.09248566H125.62830602c-6.55009578 0-12.09248566 7.55780302-16.12331469 12.59633927-4.36673098 5.20648656-11.42068037 12.26043596-10.41297313 18.13872783z m30.23121349-61.47013284c-2.01541451 0-4.03082902-0.16795167-6.04624354-0.50385361-18.47462977-3.35902372-30.73506574-20.99389792-27.37604201-39.4685277l55.08798735-305.33524967c9.74116921-53.40847618 62.30988842-95.06036866 119.4132903-95.06036867h473.79028517c57.27135353 0 109.67212247 41.81984414 119.41329029 95.06036867L901.05891381 396.37151567c3.35902372 18.47462977-8.90141223 36.27745564-27.37604339 39.46852768-18.13872782 3.52697538-31.23891935-8.73346195-34.59794309-27.37604201l-37.45311316-205.74019837c-3.86287734-20.99389792-33.42228554-44.33911228-57.6072555-44.33911228H270.2342735c-24.18496995 0-50.38535442 23.34521437-54.24823177 44.33911228L157.70698094 508.05905125c-3.02312176 16.45921526-12.26043596 27.87989563-28.38374925 27.87989703z m508.22027658 307.68656475h-272.08091444c-18.81053172 0-33.92613916-15.28355772-33.92613916-33.92613777s15.28355772-33.92613916 33.92613916-33.92613916h272.08091444c18.81053172 0 33.92613916 15.28355772 33.92613915 33.92613916s-15.11560605 33.92613916-33.92613915 33.92613777z m68.0202286-409.80088419H297.61031551c-18.81053172 0-33.92613916-13.60404517-33.92613778-32.2466266 0-18.81053172 15.28355772-30.56711545 33.92613778-30.56711545h407.95342136c18.81053172 0 33.92613916 11.92453401 33.92613916 30.56711545 0.16795167 18.81053172-15.11560605 32.24662661-33.92613916 32.2466266z m-68.0202286-136.04045721h-272.08091444c-18.81053172 0-33.92613916-13.60404517-33.92613916-32.24662663s15.28355772-30.56711545 33.92613916-30.56711541h272.08091444c18.81053172 0 33.92613916 11.92453401 33.92613915 30.56711541s-15.11560605 32.24662661-33.92613915 32.24662663z" /></svg>