<?xml version="1.0" standalone="no"?><!DOCTYPE svg PUBLIC "-//W3C//DTD SVG 1.1//EN" "http://www.w3.org/Graphics/SVG/1.1/DTD/svg11.dtd"><svg class="icon" width="200px" height="200.00px" viewBox="0 0 1024 1024" version="1.1" xmlns="http://www.w3.org/2000/svg"><path fill="#cdcdcd" d="M989.01333333 368.64l-153.6-204.8a25.4976 25.4976 0 0 0-16.2816-9.8816l-307.2-51.2a25.6512 25.6512 0 0 0-8.3968 0l-307.2 51.2A25.4976 25.4976 0 0 0 180.05333333 163.84l-153.6 204.8a25.6 25.6 0 0 0 1.4336 32.4608l460.8 512a25.7024 25.7024 0 0 0 38.0928 0l460.8-512A25.4976 25.4976 0 0 0 989.01333333 368.64zM675.97653333 358.4L507.73333333 821.0944 339.49013333 358.4h336.4864zM364.73173333 307.2L507.73333333 164.1984 650.73493333 307.2H364.73173333z m217.6-140.8l189.3376 31.5392-63.1296 94.6688-126.2592-126.208zM306.92693333 292.608L243.79733333 197.9392l189.3376-31.5392-126.208 126.208z m-46.4896 22.5792l-152.832 30.5664 91.6992-122.2656L260.43733333 315.1872z m25.9584 47.0528l152.2688 418.7648-342.6304-380.7232 190.3616-38.0928z m442.6752 0l190.3616 38.0928-342.6304 380.7232 152.2688-418.7648z m25.9584-47.0528l61.1328-91.6992 91.6992 122.2656-152.832-30.5664z" /></svg>