<?xml version="1.0" standalone="no"?><!DOCTYPE svg PUBLIC "-//W3C//DTD SVG 1.1//EN" "http://www.w3.org/Graphics/SVG/1.1/DTD/svg11.dtd"><svg class="icon" width="200px" height="200.00px" viewBox="0 0 1024 1024" version="1.1" xmlns="http://www.w3.org/2000/svg"><path fill="#cdcdcd" d="M512 1006.46183822a104.8576 104.8576 0 0 1-52.4288-13.98101333l-311.01929245-179.59776711a104.8576 104.8576 0 0 1-52.4288-90.81833245V362.92744533a105.20712533 105.20712533 0 0 1 52.4288-90.81833244L459.5712 92.5696a104.8576 104.8576 0 0 1 104.8576 0l311.01929245 179.53951289a105.20712533 105.20712533 0 0 1 52.4288 90.81833244v359.13728a104.8576 104.8576 0 0 1-52.4288 90.81833245L564.4288 992.48082489a104.8576 104.8576 0 0 1-52.4288 13.98101333z m0-858.02643911a34.95253333 34.95253333 0 0 0-17.47626667 4.66033778L183.50444089 332.693504a34.95253333 34.95253333 0 0 0-17.47626667 30.23394133v359.13728a34.95253333 34.95253333 0 0 0 17.47626667 30.29219556L494.52373333 931.89643378a34.95253333 34.95253333 0 0 0 34.95253334 0l311.01929244-179.53951289a34.95253333 34.95253333 0 0 0 17.47626667-30.29219556V362.92744533a34.95253333 34.95253333 0 0 0-17.47626667-30.23394133L529.47626667 153.09573689a34.95253333 34.95253333 0 0 0-17.47626667-4.66033778z"  /><path fill="#cdcdcd" d="M512 748.33737955a205.81216711 205.81216711 0 1 1 205.81216711-205.8121671A206.045184 206.045184 0 0 1 512 748.33737955z m0-341.71926755a135.90710045 135.90710045 0 1 0 135.90710045 135.90710045A136.02360889 136.02360889 0 0 0 512 406.618112z"  /></svg>