<?xml version="1.0" standalone="no"?><!DOCTYPE svg PUBLIC "-//W3C//DTD SVG 1.1//EN" "http://www.w3.org/Graphics/SVG/1.1/DTD/svg11.dtd"><svg class="icon" width="200px" height="200.00px" viewBox="0 0 1024 1024" version="1.1" xmlns="http://www.w3.org/2000/svg"><path fill="#cdcdcd" d="M410.8 725.8h182.7c45.1 0 75.6 14.2 96.2 44.5 10.8 15.9 19.1 36.7 24.7 61.7 4.7 20.8 7.6 44.8 8.6 71.4H248c4.8-73.6 24.3-124.2 58-150.7 30.3-23.6 70-26.9 104.8-26.9m0-50c-81.5 0-209 16.6-213.8 251.8v25.9h576.5v-27.3c0-156.5-53-250.4-180-250.4H410.8zM911.9 716.3h50v242.9h-50zM775.1 590.1h182v50h-182zM775.1 448.5h182v50h-182zM775.1 307h182v50h-182zM692.9 590.1h41.7v50h-41.7zM692.9 448.5h41.7v50h-41.7zM692.9 307h41.7v50h-41.7zM482.2 366c18.2 0 34.2 2.9 47.4 8.5 11.4 4.9 20.7 11.7 28.4 20.9 16.3 19.4 24.9 48.9 24.9 85.2 0 37.8-8.4 68.3-24.3 88.2-16.3 20.5-41.3 30.5-76.4 30.5-34.5 0-59.3-10-75.8-30.7-16.2-20.2-24.8-50.7-24.8-88 0-35.9 8.8-65.3 25.6-85 16.6-19.6 41.9-29.6 75-29.6m0-50c-101.1 0-150.7 71.3-150.7 164.6 0 93.4 45.4 168.7 150.7 168.7 107.1 0 150.7-75.3 150.7-168.7 0-93.3-47.4-164.6-150.7-164.6zM961 230.6h-50v-44c0-29.1-23.7-52.7-52.7-52.7h-697c-27 0-48.9 22-48.9 48.9v47.8h-50v-47.8c0-54.6 44.4-98.9 98.9-98.9h697C914.9 83.9 961 130 961 186.6v44zM111 844H61v-63.7c0-26.2 1.1-56.6 14-85.2 22.5-49.8 63.3-87.6 121.5-112.1l0.2-0.1 14.4-5.9c-3.8-3.6-8-7.3-11-9.9-3.1-2.7-6.3-5.5-9.2-8.2l-1.2-1.1c-52.8-49-68.9-127-39-189.7 2.7-5.6 5.8-11.4 9.2-17 11.4-18.6 26-33.3 43.2-43.6 18.1-10.9 38.4-16.4 60.1-16.4h9.3v50h-9.3c-31.8 0-50.6 19.7-60.7 36.1-2.5 4.1-4.8 8.3-6.7 12.3-9.9 20.7-12.5 45.2-7.5 68.9 5 23.9 17.6 46.1 35.4 62.7l1.2 1.1c2.4 2.2 5.2 4.7 8.2 7.3 18 15.7 38.4 33.6 36.2 56.8-0.6 6.8-3.9 19.5-19 28.4l-1.5 0.9-33 13.4c-46.1 19.5-78.2 48.7-95.3 86.6-8.8 19.5-9.5 42.7-9.5 64.7V844z"  /></svg>