<?xml version="1.0" standalone="no"?><!DOCTYPE svg PUBLIC "-//W3C//DTD SVG 1.1//EN" "http://www.w3.org/Graphics/SVG/1.1/DTD/svg11.dtd"><svg class="icon" width="200px" height="200.00px" viewBox="0 0 1024 1024" version="1.1" xmlns="http://www.w3.org/2000/svg"><path fill="#cdcdcd" d="M850.34666667 960.64l1.17333333-0.74666667c11.52-8 15.89333333-23.68 10.24-36.37333333-0.42666667-0.96-3.62666667-8.96-3.62666667-15.89333333 0-22.93333333 18.66666667-41.6 41.6-41.6h1.92c11.73333333 0 21.01333333-9.38666667 23.78666667-23.89333334 0-0.21333333 4.16-21.54666667 4.16-38.61333333 0-16.21333333-3.62666667-36.37333333-4.05333333-38.61333333-2.77333333-14.50666667-12.05333333-23.89333333-24.10666667-23.89333334h-1.70666667c-22.93333333 0-41.6-18.66666667-41.6-41.6 0-5.97333333 2.66666667-13.44 3.62666667-15.68 5.65333333-12.8 1.28-28.48-11.30666667-37.22666666L801.81333333 619.73333333c-3.84-1.6-7.89333333-2.45333333-12.26666666-2.45333333-8.85333333 0-17.49333333 3.62666667-23.25333334 9.6-6.08 6.29333333-22.08 19.09333333-33.17333333 19.09333333-11.2 0-27.30666667-13.12-33.38666667-19.41333333-5.76-6.08-14.61333333-9.81333333-23.46666666-9.81333333-4.26666667 0-8.32 0.85333333-11.94666667 2.34666666l-0.96 0.32-49.49333333 27.2-1.17333334 0.74666667c-11.52 8-15.89333333 23.68-10.24 36.37333333 0.42666667 0.96 3.73333333 8.96 3.73333334 15.89333334 0 22.93333333-18.66666667 41.6-41.6 41.6h-1.92c-11.73333333 0-21.01333333 9.38666667-23.78666667 24-0.42666667 2.24-4.05333333 22.29333333-4.05333333 38.61333333 0 16.21333333 3.73333333 36.37333333 4.05333333 38.61333333 2.77333333 14.50666667 12.05333333 23.89333333 24.10666667 23.89333334h1.6c22.93333333 0 41.6 18.66666667 41.6 41.6 0 5.97333333-2.66666667 13.44-3.62666667 15.68-5.65333333 12.8-1.28 28.37333333 11.2 37.22666666l47.68 26.56c3.84 1.6 7.89333333 2.45333333 12.26666667 2.45333334 8.96 0 17.70666667-3.73333333 23.46666666-10.02666667 5.86666667-6.4 22.50666667-20.37333333 33.92-20.37333333 11.52 0 28.05333333 13.97333333 34.13333334 20.8 5.76 6.4 14.61333333 10.13333333 23.68 10.13333333 4.26666667 0 8.32-0.85333333 13.22666666-2.98666667l48.21333334-26.77333333zM731.09333333 921.6c-13.86666667 0-28.69333333 5.65333333-43.94666666 16.85333333-5.01333333 3.73333333-9.70666667 7.68-14.18666667 12.05333334l-33.28-18.56c1.92-5.97333333 4.26666667-14.82666667 4.26666667-24.10666667 0-40.10666667-29.86666667-73.6-69.01333334-78.72-0.96-6.50666667-2.45333333-17.06666667-2.45333333-25.38666667 0-8.42666667 1.38666667-18.88 2.45333333-25.38666666 39.14666667-5.12 69.01333333-38.61333333 69.01333334-78.72 0-9.28-2.24-18.02666667-4.16-24l35.94666666-19.73333334c3.09333333 2.98666667 8.10666667 7.36 14.29333334 11.73333334 15.04 10.77333333 29.65333333 16.21333333 43.2 16.21333333 13.44 0 27.84-5.33333333 42.88-15.89333333 6.08-4.26666667 10.98666667-8.53333333 14.18666666-11.52l34.34666667 19.09333333c-1.92 5.97333333-4.26666667 14.82666667-4.26666667 24.10666667 0 40.10666667 29.86666667 73.6 69.01333334 78.72 1.06666667 6.61333333 2.45333333 17.06666667 2.45333333 25.38666666 0 8.32-1.38666667 18.77333333-2.45333333 25.38666667C850.02666667 834.13333333 820.26666667 867.62666667 820.26666667 907.73333333c0 9.28 2.24 18.02666667 4.16 24l-34.77333334 19.2c-3.09333333-3.09333333-8.10666667-7.68-14.29333333-12.26666666-15.36-11.30666667-30.29333333-17.06666667-44.26666667-17.06666667z"  /><path fill="#cdcdcd" d="M804.69333333 803.41333333c0-40.42666667-32.96-73.38666667-73.38666666-73.38666666s-73.38666667 32.96-73.38666667 73.38666666c0 40.53333333 32.96 73.38666667 73.38666667 73.38666667s73.38666667-32.96 73.38666666-73.38666667z m-73.38666666 35.62666667c-19.62666667 0-35.62666667-16-35.62666667-35.62666667s16-35.62666667 35.62666667-35.62666666 35.62666667 16 35.62666666 35.62666666c-0.10666667 19.62666667-16 35.62666667-35.62666666 35.62666667zM771.73333333 309.54666667c0-152.10666667-123.30666667-275.52-275.41333333-275.62666667v-0.10666667c-73.17333333 0-143.25333333 29.01333333-194.98666667 80.74666667-51.73333333 51.84-80.85333333 121.92-80.74666666 195.09333333 0 103.14666667 57.28 192 141.22666666 239.25333334-152.32 54.82666667-261.97333333 198.61333333-263.46666666 369.38666666v5.54666667c0.21333333 9.81333333 2.13333333 19.09333333 2.98666666 28.90666667h0.64c1.6 15.25333333 14.50666667 26.77333333 29.76 26.77333333 15.36 0 28.16-11.52 29.76-26.77333333h0.96c-0.85333333-10.34666667-3.09333333-20.26666667-3.09333333-30.72 0-89.38666667 35.41333333-175.04 98.56-238.29333334 63.14666667-63.14666667 148.90666667-98.66666667 238.29333333-98.66666666l30.61333334-3.09333334c137.49333333-15.25333333 244.90666667-130.66666667 244.90666666-272.42666666zM496.21333333 524.05333333c-118.4 0-214.4-96-214.4-214.4s96-214.4 214.4-214.4 214.4 96 214.4 214.4-95.89333333 214.4-214.4 214.4z"  /></svg>