<?xml version="1.0" standalone="no"?><!DOCTYPE svg PUBLIC "-//W3C//DTD SVG 1.1//EN" "http://www.w3.org/Graphics/SVG/1.1/DTD/svg11.dtd"><svg class="icon" width="200px" height="200.00px" viewBox="0 0 1024 1024" version="1.1" xmlns="http://www.w3.org/2000/svg"><path fill="#cdcdcd" d="M512.528 888.224a27.072 27.072 0 0 1-19.2-45.84l434.016-447.744-210.624-210.384H296a27.072 27.072 0 0 1 0-54.096h432a26.976 26.976 0 0 1 19.2 7.92l237.168 237.168a27.024 27.024 0 0 1 0.336 37.92l-452.256 466.8a26.976 26.976 0 0 1-19.776 8.256z"  /><path fill="#cdcdcd" d="M511.616 888.224a26.976 26.976 0 0 1-19.2-8.256L39.632 413.168a27.072 27.072 0 0 1 0-37.92L277.088 138.08a27.024 27.024 0 0 1 38.4 38.4L96.992 394.64 531.2 842.384a27.024 27.024 0 0 1-19.2 45.84z"  /><path fill="#cdcdcd" d="M706.928 404.864a27.024 27.024 0 0 0-38.4-1.056L512 560.576 355.232 403.808a27.12 27.12 0 0 0-38.4 38.4l173.76 173.76a26.88 26.88 0 0 0 21.168 9.936 27.12 27.12 0 0 0 19.584-8.208c0.576-0.624 1.008-1.296 1.536-1.968l173.808-173.76a27.024 27.024 0 0 0 0.24-37.104z"  /></svg>